<?xml version="1.0" encoding="UTF-8" standalone="no"?>
<!DOCTYPE svg PUBLIC "-//W3C//DTD SVG 1.1//EN" "http://www.w3.org/Graphics/SVG/1.1/DTD/svg11.dtd">
<svg width="100%" height="100%" viewBox="0 0 800 800" version="1.1" xmlns="http://www.w3.org/2000/svg" xmlns:xlink="http://www.w3.org/1999/xlink" xml:space="preserve" xmlns:serif="http://www.serif.com/" style="fill-rule:evenodd;clip-rule:evenodd;stroke-linecap:round;stroke-miterlimit:1.5;">
    <g transform="matrix(4.90467,0,0,4.90467,-150.547,-1036.66)">
        <g>
            <g transform="matrix(1,0,0,1,0.630963,0.946444)">
                <rect x="111.619" y="243.102" width="6.31" height="2.524" style="fill:none;stroke:black;stroke-width:5.1px;"/>
            </g>
            <g transform="matrix(1,0,0,1,3.78578,-6.30963)">
                <g transform="matrix(-1,0,0,1,223.076,0)">
                    <path d="M104.363,252.566C105.402,252.566 106.818,250.742 107.517,250.042C109.197,248.363 112.035,246.106 114.142,244.995C130.306,236.471 146.795,232.438 147.184,232.275C149.493,231.308 160.544,229.347 161.1,229.364C163.839,229.446 164.489,229.465 167.774,229.221C168.613,229.158 166.97,229.046 167.774,229.221C170.003,229.705 170.537,230.431 171.022,231.326C171.465,232.143 171.916,234.423 171.647,234.568C171.517,234.638 171.376,235.399 170.929,235.846C169.933,236.841 167.826,237.56 166.208,238.37C165.393,238.777 160.973,239.82 159.468,240.573C157.191,241.711 145.961,245.349 143.425,246.617C140.258,248.2 138.43,248.748 137.178,249.607C135.048,251.07 133.86,251.283 132.854,252.142C132.276,252.635 131.096,253.197 130.547,253.197" style="fill:none;stroke:black;stroke-width:5.1px;stroke-linejoin:round;"/>
                </g>
                <g transform="matrix(1,0,0,1,-0.0141095,0)">
                    <path d="M104.363,252.566C105.402,252.566 106.818,250.742 107.517,250.042C109.197,248.363 112.035,246.106 114.142,244.995C130.306,236.471 146.795,232.438 147.184,232.275C149.493,231.308 160.544,229.347 161.1,229.364C163.839,229.446 164.489,229.465 167.774,229.221C168.613,229.158 166.97,229.046 167.774,229.221C170.003,229.705 170.537,230.431 171.022,231.326C171.465,232.143 171.916,234.423 171.647,234.568C171.517,234.638 171.376,235.399 170.929,235.846C169.933,236.841 167.826,237.56 166.208,238.37C165.393,238.777 160.973,239.82 159.468,240.573C157.191,241.711 145.961,245.349 143.425,246.617C140.258,248.2 138.43,248.748 137.178,249.607C135.048,251.07 133.86,251.283 132.854,252.142C132.276,252.635 131.096,253.197 130.547,253.197" style="fill:none;stroke:black;stroke-width:5.1px;stroke-linejoin:round;"/>
                </g>
            </g>
        </g>
        <g transform="matrix(1,0,0,0.866336,0,36.2587)">
            <rect x="60.822" y="271.267" width="104.702" height="105.905" style="fill:none;stroke:black;stroke-width:5.45px;stroke-linejoin:round;"/>
        </g>
        <g transform="matrix(1,0,0,1,0,-5.0477)">
            <path d="M185.757,258.403C185.757,255.181 183.141,252.566 179.92,252.566L44.579,252.566C41.358,252.566 38.742,255.181 38.742,258.403L38.742,275.912L185.757,275.912L185.757,258.403Z" style="fill:none;stroke:black;stroke-width:5.1px;"/>
        </g>
    </g>
</svg>
