<?xml version="1.0" encoding="UTF-8" standalone="no"?>
<!DOCTYPE svg PUBLIC "-//W3C//DTD SVG 1.1//EN" "http://www.w3.org/Graphics/SVG/1.1/DTD/svg11.dtd">
<svg width="100%" height="100%" viewBox="0 0 500 500" version="1.1" xmlns="http://www.w3.org/2000/svg" xmlns:xlink="http://www.w3.org/1999/xlink" xml:space="preserve" xmlns:serif="http://www.serif.com/" style="fill-rule:evenodd;clip-rule:evenodd;stroke-linecap:round;stroke-miterlimit:1.5;">
    <g transform="matrix(3.52408,0,0,3.52408,-862.346,-880.497)">
        <g transform="matrix(1.61792,0,0,1.61792,-189.622,-231.013)">
            <circle cx="313.655" cy="369.806" r="2.603" style="stroke:black;stroke-width:1.4px;"/>
        </g>
        <g transform="matrix(1,0,0,1,4.09214,-2.68044)">
            <path d="M283.907,300.298C283.907,289.32 300.085,278.732 309.786,278.732C310.992,278.732 318.173,278.402 320.878,279.348C327.194,281.557 331.105,284.852 334.433,292.288C334.626,292.718 333.983,300.132 333.201,300.914C327.623,306.492 322.864,311.867 317.181,317.551C311.293,323.439 313.483,347.783 313.483,358.218" style="fill:none;stroke:black;stroke-width:7.09px;"/>
        </g>
        <g transform="matrix(1.02663,0,0,1.02663,-15.5153,-10.6121)">
            <circle cx="322.264" cy="323.25" r="63.62" style="fill:none;stroke:black;stroke-width:5.53px;"/>
        </g>
    </g>
</svg>
