<?xml version="1.0" encoding="UTF-8" standalone="no"?>
<!DOCTYPE svg PUBLIC "-//W3C//DTD SVG 1.1//EN" "http://www.w3.org/Graphics/SVG/1.1/DTD/svg11.dtd">
<svg width="100%" height="100%" viewBox="0 0 900 600" version="1.1" xmlns="http://www.w3.org/2000/svg" xmlns:xlink="http://www.w3.org/1999/xlink" xml:space="preserve" xmlns:serif="http://www.serif.com/" style="fill-rule:evenodd;clip-rule:evenodd;stroke-linecap:round;stroke-miterlimit:1.5;">
    <g transform="matrix(3.38526,0,0,3.38526,-1583.05,-856.281)">
        <g>
            <path d="M596.697,370.961L655.577,370.961" style="fill:none;stroke:black;stroke-width:2.95px;"/>
            <path d="M583.043,352.188L672.643,352.188" style="fill:none;stroke:black;stroke-width:2.95px;"/>
            <path d="M632.963,328.721L668.377,328.721" style="fill:none;stroke:black;stroke-width:2.95px;"/>
            <g transform="matrix(1,0,0,1,-4.26667,-4.26667)">
                <circle cx="545.817" cy="341.414" r="25.92" style="fill:none;stroke:black;stroke-width:2.95px;"/>
            </g>
            <rect x="580.91" y="307.814" width="41.387" height="22.613" style="fill:none;stroke:black;stroke-width:2.95px;"/>
            <path d="M632.11,311.654L650.03,311.654" style="fill:none;stroke:black;stroke-width:2.95px;"/>
        </g>
        <g>
            <g transform="matrix(1,0,0,1,1.66193,9.37755)">
                <path d="M673.353,290.768C673.352,290.656 673.259,288.407 673.259,288.532C673.259,288.7 673.353,290.768 673.353,290.768ZM697.863,314.678C697.921,314.68 699.093,314.656 699.372,314.656L697.863,314.678ZM696.954,314.614C697.03,314.62 697.78,314.674 697.947,314.683L696.954,314.614ZM694.681,314.31C695.16,314.396 697.021,314.618 697.091,314.624L694.681,314.31ZM692.683,313.85C692.758,313.868 694.361,314.248 694.756,314.322C694.361,314.248 692.683,313.85 692.683,313.85ZM690.042,313.025C690.092,313.044 692.82,313.889 692.921,313.924L690.042,313.025ZM687.243,311.876C687.629,312.048 689.708,312.895 690.103,313.048L687.243,311.876ZM681.789,307.952L679.609,305.719C679.647,305.754 681.789,307.952 681.789,307.952C681.866,308.022 681.828,307.987 681.789,307.952ZM679.609,305.719L679.711,305.836C679.677,305.797 679.643,305.758 679.609,305.719ZM687.243,311.876L685.315,310.648C685.434,310.724 687.123,311.803 687.243,311.876ZM685.484,310.75C685.156,310.526 683.959,309.725 683.641,309.486C683.542,309.411 683.221,309.163 683.221,309.163C683.36,309.272 683.5,309.38 683.641,309.486C683.958,309.725 685.156,310.525 685.484,310.75ZM683.274,309.204C683.072,309.045 681.785,307.942 681.706,307.874C681.706,307.874 683.072,309.046 683.274,309.204ZM678.38,304.13C678.612,304.433 679.711,305.836 679.711,305.836C679.466,305.544 678.612,304.433 678.38,304.13ZM675.478,299.16C675.544,299.342 678.527,304.371 678.558,304.435L675.478,299.16ZM674,294.879L673.725,293.614C673.855,294.161 675.384,298.838 675.548,299.372C675.4,298.89 674.121,295.373 674,294.879ZM673.703,293.501C673.591,292.9 673.397,291.153 673.327,290.538C673.397,291.152 673.591,292.899 673.703,293.501L673.725,293.614L673.754,293.764L673.725,293.614L673.703,293.501ZM673.272,289.529C673.275,289.64 673.267,289.417 673.272,289.529ZM673.265,288.73L673.31,286.02C673.314,285.833 673.268,288.48 673.265,288.73ZM706.681,313.638C706.63,313.654 699.104,314.701 699.023,314.701C699.023,314.701 706.704,313.632 706.793,313.605L706.793,404.175L496.5,404.175L496.5,282.87L673.937,282.87C673.856,283.203 673.4,286.004 673.343,286.411C673.4,286.004 673.856,283.203 673.937,282.87L673.968,282.734C676.643,271.234 686.971,262.663 699.285,262.663C713.65,262.663 725.312,274.326 725.312,288.69C725.312,300.445 717.503,310.389 706.793,313.605L706.681,313.638Z" style="fill:none;stroke:black;stroke-width:5.91px;"/>
            </g>
            <path d="M664.977,269.574L474.143,269.574L474.143,373.741L485.81,373.741" style="fill:none;stroke:black;stroke-width:5.91px;"/>
        </g>
        <g>
            <g transform="matrix(1,0,0,1,3.44185,11.2251)">
                <path d="M681.25,286.901L694.113,300.882L713.35,275.493" style="fill:none;stroke:rgb(24,159,57);stroke-width:4.43px;"/>
            </g>
            <g transform="matrix(1,0,0,1,-109.938,8.3836)">
                <g transform="matrix(1,0,0.0380121,1,-3.6971,10.5137)">
                    <path d="M650.604,306.251L643.893,303.231L636.623,305.692L636.175,311.508L640.873,315.982L646.353,321.574L649.373,327.167C649.165,328.791 649.107,330.433 646.465,331.753C644.954,333.103 643.206,332.865 640.202,331.529L635.616,329.851" style="fill:none;stroke:rgb(24,159,57);stroke-width:4.35px;"/>
                </g>
                <path d="M644.457,340.365L644.34,338.018" style="fill:none;stroke:rgb(24,159,57);stroke-width:4.43px;"/>
                <path d="M658.548,316.765L658.657,319.675" style="fill:none;stroke:rgb(24,159,57);stroke-width:4.43px;"/>
                <g transform="matrix(0.997517,-0.0559555,0.0697552,0.868812,-22.2475,82.0885)">
                    <path d="M652.272,346.309L652.547,343.136" style="fill:none;stroke:rgb(24,159,57);stroke-width:4.67px;"/>
                </g>
                <path d="M651.61,311.061L651.722,313.745" style="fill:none;stroke:rgb(24,159,57);stroke-width:4.43px;"/>
            </g>
        </g>
    </g>
</svg>
